<?xml version="1.0" standalone="no"?>
<!DOCTYPE svg PUBLIC "-//W3C//DTD SVG 20010904//EN"
 "http://www.w3.org/TR/2001/REC-SVG-20010904/DTD/svg10.dtd">
<svg version="1.0" xmlns="http://www.w3.org/2000/svg"
 width="528.000000pt" height="528.000000pt" viewBox="0 0 528.000000 528.000000"
 preserveAspectRatio="xMidYMid meet">
<metadata>
Created by potrace 1.14, written by Peter Selinger 2001-2017
</metadata>
<g transform="translate(0.000000,528.000000) scale(0.100000,-0.100000)"
fill="#000000" stroke="none">
<path d="M2417 5194 c-1 -1 -29 -5 -62 -8 -117 -13 -150 -17 -167 -22 -10 -3
-30 -7 -45 -10 -16 -2 -39 -7 -53 -10 -43 -10 -59 -14 -78 -18 -9 -2 -37 -9
-62 -16 -25 -7 -49 -13 -55 -15 -5 -1 -17 -4 -25 -7 -8 -3 -51 -18 -95 -34
-44 -15 -95 -34 -112 -41 -18 -7 -36 -14 -40 -15 -11 -3 -145 -66 -163 -77 -8
-5 -42 -24 -75 -41 -91 -49 -250 -154 -350 -234 -167 -132 -394 -371 -495
-521 -19 -27 -37 -52 -40 -55 -4 -3 -13 -16 -20 -30 -7 -13 -28 -48 -47 -77
-18 -29 -32 -54 -31 -55 2 -2 -6 -16 -18 -33 -92 -133 -244 -555 -278 -770 -2
-16 -8 -50 -11 -75 -4 -25 -9 -53 -10 -62 -9 -45 -19 -215 -18 -313 0 -197 13
-340 48 -520 15 -80 62 -246 91 -330 20 -55 38 -110 41 -122 3 -13 9 -23 14
-23 5 0 9 -7 9 -15 0 -31 127 -275 200 -385 20 -30 39 -63 43 -72 3 -10 11
-18 16 -18 5 0 12 -8 15 -18 4 -10 14 -27 24 -38 10 -10 24 -28 32 -40 81
-116 295 -329 472 -469 180 -143 551 -340 733 -390 36 -10 36 -10 55 -18 13
-6 57 -18 150 -42 40 -10 161 -35 196 -40 21 -3 48 -8 60 -10 137 -30 553 -27
749 5 100 17 116 20 245 52 257 63 559 196 774 340 38 26 171 123 182 133 7 5
31 26 55 45 71 56 279 269 347 355 35 44 69 87 75 95 25 31 125 187 156 243
76 138 175 354 196 432 10 35 10 35 18 55 9 23 27 85 31 106 2 10 11 46 19 79
48 184 90 576 64 592 -6 4 -92 4 -262 2 -5 0 -59 0 -120 0 -60 0 -117 0 -125
0 -8 0 -60 0 -115 0 -55 0 -107 0 -115 0 -8 0 -64 0 -125 0 -60 0 -118 0 -127
0 -10 0 -75 0 -144 1 -70 0 -129 -2 -133 -5 -3 -3 -6 -23 -8 -43 -3 -61 -13
-156 -18 -180 -3 -12 -7 -31 -10 -42 -20 -93 -54 -191 -95 -278 -183 -384
-539 -649 -965 -719 -54 -8 -314 -11 -358 -3 -23 5 -55 10 -72 13 -112 18
-314 95 -420 160 -110 68 -307 242 -350 309 -5 8 -32 48 -59 88 -49 74 -136
248 -136 273 0 8 -3 17 -7 21 -4 3 -8 12 -9 19 -1 7 -9 39 -17 72 -39 148 -48
267 -34 430 9 100 12 119 27 175 7 25 14 54 16 65 3 18 14 50 34 100 25 63 96
205 102 205 5 0 8 5 8 11 0 34 190 253 280 324 214 169 473 268 730 280 l75 3
0 639 0 638 -103 0 c-57 1 -104 0 -105 -1z"/>
<path d="M2598 3445 c-1 -2 -28 -6 -58 -10 -88 -11 -92 -12 -150 -30 -244 -75
-445 -272 -525 -515 -10 -30 -20 -62 -21 -70 -1 -8 -6 -37 -10 -65 -9 -60 -10
-175 -1 -230 8 -47 15 -80 17 -80 1 0 3 -10 6 -23 16 -85 106 -244 188 -331
101 -105 274 -208 386 -227 14 -2 36 -7 50 -11 41 -10 222 -12 270 -2 79 15
92 18 129 30 190 63 360 209 454 390 27 52 51 109 59 139 65 259 26 496 -116
694 -42 59 -143 166 -156 166 -4 0 -19 11 -35 24 -47 40 -189 106 -260 121
-22 5 -47 10 -55 12 -8 1 -44 5 -80 9 -36 3 -70 7 -77 9 -6 2 -13 2 -15 0z"/>
</g>
</svg>
